PathFileType	4	(X/Y/Z)	C:/Users/beibeiliu/ov580/test_trc/User2\sequence.33_training_dense_left.trc
DataRate	CameraRate	NumFrames	NumMarkers	Units	OrigDataRate	OrigDataStartFrame	OrigNumFrames
120	120	7	19	mm	120	53	105
Frame#	Time	ThumbCMC			ThumbMCP			ThumbIP			ThumbTip			IndexMCP			IndexPIP			IndexTip			MiddleMCP			MiddlePIP			MiddleTip			RingMCP			RingPIP			RingTip			PinkyMCP			PinkyPIP			PinkyTip			BackHand1			BackHand2			BackHand3	
		X0	Y0	Z0	X1	Y1	Z1	X2	Y2	Z2	X3	Y3	Z3	X4	Y4	Z4	X5	Y5	Z5	X6	Y6	Z6	X7	Y7	Z7	X8	Y8	Z8	X9	Y9	Z9	X10	Y10	Z10	X11	Y11	Z11	X12	Y12	Z12	X13	Y13	Z13	X14	Y14	Z14	X15	Y15	Z15	X16	Y16	Z16	X17	Y17	Z17	X18	Y18	Z18	
52	0.433333	-216.413	52.7839	-8.35352	-194.546	61.0935	-30.8107	-186.787	63.2579	-72.572	-202.171	44.8054	-91.2603	-242.674	62.6016	-88.2644	-225.651	42.9511	-108.342	-211.458	23.5048	-79.647	-256.464	44.0381	-98.2724	-232.266	23.1816	-109.498	-218.091	11.7522	-71.6843	-267.572	22.6543	-91.4515	-240.963	5.53521	-100.74	-230.847	-0.783776	-65.5437	-274.732	4.7632	-81.7182	-244.52	-10.493	-88.0348	-232.697	-13.5678	-56.0581	-280.316	33.6114	-31.4144	-281.579	27.174	5.87312	-256.123	58.764	-14.1774	
53	0.441667	-187.667	37.8016	-3.32962	-164.435	40.8018	-31.9579	-154.792	35.6844	-67.4552	-173.181	21.7824	-85.3694	-207.575	51.5831	-87.0788	-194.601	25.5931	-104.961	-188.102	6.13618	-78.0238	-222.641	38.0607	-96.7435	-207.858	5.6262	-104.168	-203.008	-4.84059	-66.0276	-238.14	21.1041	-92.7839	-224.117	-5.58662	-97.8402	-213.266	-11.7677	-64.5625	-253.932	6.74022	-80.6584	-229.76	-16.9635	-85.3506	-219.899	-21.6221	-55.276	-259.838	36.2243	-28.1571	-258.729	33.3333	3.30207	-225.242	54.8414	-14.2509	
54	0.45	-169.442	23.1355	-6.01169	-146.459	17.3203	-26.1349	-135.256	8.11312	-61.3875	-153.618	-3.98787	-80.7036	-182.857	30.304	-88.3461	-173.207	-1.40127	-100.975	-171.941	-16.1233	-71.6211	-204.98	18.5987	-95.9032	-189.707	-15.4719	-99.1582	-186.394	-22.4217	-60.3091	-222.371	3.33853	-91.5455	-208.556	-27.1886	-91.8357	-200.148	-27.3517	-58.6175	-235.621	-8.57723	-82.4847	-216.244	-34.3484	-79.8067	-208.831	-32.1281	-48.7742	-239.286	30.1166	-33.8344	-242.125	26.2609	1.05193	-203.734	41.2478	-15.0891	
55	0.458333	-159.37	5.85681	-2.87474	-132.304	-3.14595	-24.3143	-124.608	-17.0774	-54.1106	-138.531	-29.7487	-79.0232	-166.886	7.72623	-85.3816	-159.003	-24.0149	-95.7502	-159.542	-37.3188	-63.0054	-185.358	-3.147	-93.9645	-173.573	-39.2154	-94.371	-176.159	-44.4723	-56.3349	-203.859	-14.8262	-88.7607	-192.619	-49.4876	-84.442	-187.732	-46.0173	-51.2169	-223.001	-28.1698	-79.2452	-203.247	-53.1782	-73.0972	-199.034	-47.4955	-37.151	-220.876	16.218	-35.3514	-225.4	19.1701	-3.44172	-191.186	29.1788	-14.0326	
56	0.466667	-151.534	2.82512	-2.55452	-124.139	-8.39467	-19.6804	-111.095	-25.4861	-48.667	-124.233	-42.3016	-70.3377	-155.462	-8.07746	-85.4496	-145.401	-38.8734	-89.7397	-144.768	-49.4683	-57.3867	-175.076	-21.512	-92.7464	-163.9	-56.1947	-85.2516	-165.201	-53.8974	-45.2732	-193.877	-33.0123	-84.8361	-180.431	-64.6043	-75.8332	-174.764	-54.8007	-41.8646	-210.835	-42.4583	-72.0992	-191.081	-68.0219	-63.1301	-186.874	-57.9373	-29.3338	-217.323	3.81022	-41.8781	-224.265	11.631	-4.10001	-183.129	19.8972	-19.7912	
57	0.475	-157.293	12.3226	1.42328	-128.493	5.04664	-15.1069	-112.105	-13.9245	-43.6257	-118.362	-32.8559	-60.3325	-151.957	-10.764	-83.2049	-139.088	-38.7446	-82.2272	-135.017	-42.6641	-47.4277	-170.338	-27.4169	-88.0679	-151.959	-55.9134	-80.2444	-151.5	-49.9323	-36.5625	-181.543	-44.555	-81.0919	-162.699	-66.3081	-67.7726	-161.381	-55.661	-35.6031	-199.388	-55.1798	-65.0866	-174.488	-73.6591	-47.102	-172.127	-58.0446	-19.11	-217.002	-6.19706	-38.5482	-223.371	7.59766	-7.1382	-191.649	21.2392	-20.0937	
58	0.483333	-168.609	37.6485	0.425943	-139.695	34.7967	-16.0361	-115.673	23.6223	-37.8966	-113.95	-1.95056	-56.5543	-155.4	5.29638	-79.2265	-130.536	-15.7655	-77.9111	-126.465	-15.2436	-38.8527	-164.441	-17.2565	-81.3438	-133.185	-36.592	-67.3651	-136.263	-26.9357	-29.0067	-170.891	-36.877	-72.7216	-143.627	-50.1735	-56.7772	-145.894	-35.7026	-26.9646	-180.446	-53.084	-56.607	-152.029	-56.4121	-39.4649	-157.444	-36.9948	-10.8541	-213.927	-6.71438	-39.7553	-230.621	1.71639	-6.72788	-204.699	26.0866	-24.589	
